<?xml version="1.0" standalone="no"?>
<!DOCTYPE svg PUBLIC "-//W3C//DTD SVG 20010904//EN"
 "http://www.w3.org/TR/2001/REC-SVG-20010904/DTD/svg10.dtd">
<svg version="1.0" xmlns="http://www.w3.org/2000/svg"
 width="643.000000pt" height="643.000000pt" viewBox="0 0 643.000000 643.000000"
 preserveAspectRatio="xMidYMid meet">
<metadata>
Created by potrace 1.11, written by Peter Selinger 2001-2013
</metadata>
<g transform="translate(0.000000,643.000000) scale(0.100000,-0.100000)"
fill="#000000" stroke="none">
<path d="M3170 4883 c0 -10 -56 -109 -149 -263 -5 -8 -37 -62 -72 -120 -216
-365 -329 -556 -376 -633 -29 -49 -53 -91 -53 -94 0 -3 -8 -17 -19 -31 -10
-15 -28 -43 -38 -62 -11 -19 -159 -269 -328 -555 -170 -286 -341 -576 -381
-645 -40 -69 -78 -130 -84 -137 -5 -7 -10 -14 -10 -17 0 -4 -134 -234 -147
-252 -4 -5 -14 -21 -22 -35 -16 -27 -69 -118 -196 -334 -48 -82 -96 -162 -106
-177 -11 -15 -19 -32 -19 -38 0 -5 -3 -10 -7 -10 -5 0 -19 -23 -32 -50 -14
-28 -29 -50 -33 -50 -4 0 -8 -5 -8 -10 0 -6 -43 -82 -95 -169 -52 -88 -97
-165 -100 -173 -4 -11 360 -13 2282 -13 1987 1 2288 3 2285 15 -2 8 -40 75
-85 150 -45 74 -87 144 -93 155 -8 16 -64 110 -199 337 -5 9 -17 29 -26 45
-23 40 -371 626 -417 701 -12 20 -27 46 -32 57 -5 11 -20 36 -32 57 -33 52
-176 295 -207 348 -14 25 -29 47 -33 48 -4 2 -8 8 -8 12 0 5 -34 65 -75 134
-41 69 -75 130 -75 136 0 5 -4 10 -8 10 -5 0 -16 15 -25 33 -9 17 -30 55 -46
82 -16 28 -36 61 -44 75 -8 14 -53 90 -100 169 -48 79 -87 148 -87 152 0 5 -5
9 -12 9 -6 0 -8 3 -5 7 4 3 1 13 -6 22 -8 9 -37 57 -66 106 -28 50 -56 97 -61
105 -5 8 -37 62 -71 120 -34 58 -74 123 -88 145 -14 22 -26 42 -26 45 0 3 -8
16 -17 30 -20 30 -263 441 -290 490 -26 48 -58 87 -58 73z m135 -305 c66 -111
126 -211 132 -222 7 -12 16 -29 19 -38 3 -10 10 -18 15 -18 5 0 9 -4 9 -9 0
-7 60 -111 169 -293 9 -14 34 -57 56 -95 54 -92 42 -72 210 -355 83 -138 152
-257 155 -262 3 -6 65 -112 139 -236 231 -388 324 -544 335 -565 7 -11 24 -39
39 -62 15 -24 27 -44 27 -47 0 -2 45 -79 100 -171 55 -91 100 -171 100 -176 0
-5 5 -9 10 -9 6 0 10 -4 10 -9 0 -5 28 -56 62 -113 133 -223 281 -474 298
-503 9 -16 36 -60 58 -98 23 -37 42 -72 42 -77 0 -6 5 -10 10 -10 6 0 10 -4
10 -9 0 -6 16 -36 35 -68 19 -32 35 -60 35 -63 0 -3 -990 -5 -2200 -5 -1764 0
-2199 2 -2195 13 5 13 278 478 419 712 44 74 86 144 92 155 39 71 121 207 139
230 8 10 15 22 15 26 0 4 53 96 118 206 199 334 213 358 223 373 35 57 249
422 249 426 0 3 5 10 10 17 18 20 150 249 150 258 0 5 5 9 10 9 6 0 10 4 10 9
0 5 38 72 84 149 46 76 95 159 109 183 25 46 260 442 277 469 16 26 85 145 89
155 2 5 8 14 13 20 5 5 48 76 95 158 47 81 89 147 92 147 4 0 60 -91 126 -202z"/>
<path d="M3099 3447 c-42 -34 -92 -74 -110 -89 -63 -49 -264 -209 -284 -226
-11 -9 -85 -69 -165 -132 -155 -123 -170 -135 -202 -163 -12 -9 -41 -32 -64
-50 l-43 -32 -1 -172 c0 -95 2 -173 5 -173 3 0 54 39 113 86 127 101 122 97
193 154 30 25 70 56 89 70 18 14 41 32 50 40 37 30 56 46 100 80 24 19 50 40
56 45 6 6 26 22 45 37 19 15 93 75 166 134 142 114 130 110 184 62 10 -10 23
-18 28 -18 5 0 11 -4 13 -8 2 -4 37 -35 78 -67 95 -75 90 -71 120 -96 14 -12
52 -42 85 -67 33 -25 62 -49 65 -52 3 -3 37 -30 75 -60 39 -30 75 -59 81 -65
6 -5 25 -21 43 -35 18 -14 38 -30 44 -35 33 -29 257 -205 262 -205 3 0 5 78 5
173 l-1 172 -166 130 c-91 72 -173 137 -182 146 -9 8 -81 66 -161 129 -80 63
-147 117 -150 120 -3 3 -25 21 -50 40 -62 48 -67 52 -135 107 -113 92 -99 91
-186 20z"/>
<path d="M3168 2952 c-2 -6 -97 -83 -153 -124 -5 -4 -30 -26 -55 -48 -25 -22
-48 -40 -52 -40 -4 0 -13 -6 -20 -13 -7 -6 -71 -59 -143 -116 -71 -57 -139
-111 -150 -120 -11 -9 -98 -78 -192 -154 l-173 -137 0 -170 c0 -98 4 -170 9
-170 5 0 16 6 23 13 7 7 51 43 98 80 47 37 92 74 101 81 10 8 48 38 85 67 38
30 75 59 82 66 7 7 41 34 75 60 34 26 64 50 67 53 3 3 48 39 100 80 52 41 97
77 100 80 25 25 200 160 209 160 9 0 357 -273 621 -487 8 -7 53 -43 100 -80
47 -37 90 -72 97 -78 7 -5 18 -15 25 -20 7 -6 34 -28 61 -49 l47 -38 0 176 0
176 -207 165 c-115 91 -224 178 -243 194 -19 16 -75 60 -125 100 -171 136
-200 159 -222 178 -12 10 -34 27 -49 38 -15 11 -45 35 -67 53 -42 35 -44 36
-49 24z"/>
<path d="M3170 2403 c0 -5 -19 -23 -42 -40 -24 -17 -56 -43 -73 -56 -16 -14
-194 -156 -395 -316 -201 -160 -380 -304 -398 -319 l-33 -27 3 -173 3 -172 75
60 c97 78 89 73 200 160 52 41 104 83 115 92 101 85 549 438 556 438 4 0 14
-6 21 -12 7 -7 42 -35 78 -63 36 -27 74 -57 85 -67 11 -9 90 -72 175 -140 85
-67 160 -127 166 -133 6 -5 26 -21 44 -35 72 -54 205 -164 208 -172 2 -4 9 -8
17 -8 7 0 19 -7 26 -16 7 -9 39 -36 71 -61 l58 -44 0 174 0 174 -117 94 c-65
52 -125 99 -133 106 -8 7 -45 36 -81 65 -36 29 -83 67 -104 83 -22 17 -68 54
-104 83 -37 29 -79 64 -96 77 -58 46 -151 120 -190 150 -21 17 -52 41 -69 55
-56 46 -66 53 -66 43z"/>
</g>
</svg>
