<?xml version="1.0" encoding="UTF-8"?>
<svg width="643px" height="601px" viewBox="0 0 643 601" version="1.1" xmlns="http://www.w3.org/2000/svg" xmlns:xlink="http://www.w3.org/1999/xlink">
    <title>Artboard</title>
    <desc>Created with Sketch.</desc>
    <defs></defs>
    <g id="Page-1" stroke="none" stroke-width="1" fill="none" fill-rule="evenodd">
        <g id="Artboard">
            <g id="Group" transform="translate(223.000000, 271.000000)">
                <path d="M189.703125,110.5 L190,110.5 L190,75.8798283 L95,0 L0,75.8798283 L0,110.5 L0.296875,110.5 L95,34.8572961 L189.703125,110.5 Z" id="Combined-Shape" fill="#222034"></path>
                <path d="M189.703125,165.75 L190,165.75 L190,131.129828 L95,55.25 L0,131.129828 L0,165.75 L0.296875,165.75 L95,90.1072961 L189.703125,165.75 Z" id="Combined-Shape" fill="#3F3F74"></path>
                <path d="M189.703125,221 L190,221 L190,186.379828 L95,110.5 L0,186.379828 L0,221 L0.296875,221 L95,145.357296 L189.703125,221 Z" id="Combined-Shape" fill="#76428A"></path>
            </g>
            <polygon id="Triangle-2" stroke="#6969C0" stroke-width="5" points="318 138 543 518 93 518"></polygon>
        </g>
    </g>
</svg>