<?xml version="1.0" encoding="UTF-8"?>
<svg width="2620px" height="601px" viewBox="0 0 2620 601" version="1.1" xmlns="http://www.w3.org/2000/svg" xmlns:xlink="http://www.w3.org/1999/xlink">
    <g id="Page-1" stroke="none" stroke-width="1" fill="none" fill-rule="evenodd">
        <g id="Artboard">
            <path d="M290.335995,303.72 C286.495976,298.727975 281.07203,294.552017 274.063995,291.192 C267.05596,287.831983 260.000031,286.152 252.895995,286.152 C248.671974,286.152 244.448016,286.679995 240.223995,287.736 C235.999974,288.792005 232.160012,290.423989 228.703995,292.632 C225.247978,294.840011 222.416006,297.719982 220.207995,301.272 C217.999984,304.824018 216.895995,309.095975 216.895995,314.088 C216.895995,318.696023 217.855985,322.631984 219.775995,325.896 C221.696005,329.160016 224.335978,331.943988 227.695995,334.248 C231.056012,336.552012 235.135971,338.567991 239.935995,340.296 C244.736019,342.024009 250.015966,343.751991 255.775995,345.48 C262.304028,347.592011 269.07196,349.991987 276.079995,352.68 C283.08803,355.368013 289.519966,358.919978 295.375995,363.336 C301.232024,367.752022 306.031976,373.319966 309.775995,380.04 C313.520014,386.760034 315.391995,395.11195 315.391995,405.096 C315.391995,416.040055 313.376015,425.591959 309.343995,433.752 C305.311975,441.912041 299.936029,448.679973 293.215995,454.056 C286.495961,459.432027 278.62404,463.463987 269.599995,466.152 C260.57595,468.840013 251.072045,470.184 241.087995,470.184 C227.839929,470.184 214.880058,467.736024 202.207995,462.84 C189.535932,457.943976 179.168035,450.696048 171.103995,441.096 L197.023995,416.904 C202.01602,423.816035 208.687953,429.28798 217.039995,433.32 C225.392037,437.35202 233.599955,439.368 241.663995,439.368 C245.888016,439.368 250.207973,438.840005 254.623995,437.784 C259.040017,436.727995 263.023977,434.952012 266.575995,432.456 C270.128013,429.959988 273.007984,426.840019 275.215995,423.096 C277.424006,419.351981 278.527995,414.696028 278.527995,409.128 C278.527995,403.751973 277.280008,399.288018 274.783995,395.736 C272.287983,392.183982 268.928016,389.112013 264.703995,386.52 C260.479974,383.927987 255.488024,381.67201 249.727995,379.752 L231.583995,373.704 C225.439964,371.78399 219.296026,369.480013 213.151995,366.792 C207.007964,364.103987 201.48802,360.552022 196.591995,356.136 C191.695971,351.719978 187.71201,346.296032 184.639995,339.864 C181.56798,333.431968 180.031995,325.416048 180.031995,315.816 C180.031995,305.447948 182.191973,296.520037 186.511995,289.032 C190.832017,281.543963 196.49596,275.352024 203.503995,270.456 C210.51203,265.559976 218.47995,261.912012 227.407995,259.512 C236.33604,257.111988 245.407949,255.912 254.623995,255.912 C264.992047,255.912 275.503942,257.735982 286.159995,261.384 C296.816048,265.032018 306.079956,270.503964 313.951995,277.8 L290.335995,303.72 Z M431.455996,292.776 L368.959996,292.776 L368.959996,261.096 L530.239996,261.096 L530.239996,292.776 L467.743996,292.776 L467.743996,465 L431.455996,465 L431.455996,292.776 Z M812.743999,261.096 L883.591999,261.096 C893.192047,261.096 902.503954,262.10399 911.527999,264.12 C920.552044,266.13601 928.567964,269.447977 935.575999,274.056 C942.584034,278.664023 948.199978,284.711963 952.423999,292.2 C956.64802,299.688037 958.759999,308.807946 958.759999,319.56 C958.759999,334.344074 954.584041,346.391953 946.231999,355.704 C937.879957,365.016047 926.504071,371.303984 912.103999,374.568 L966.535999,465 L922.759999,465 L875.527999,378.6 L849.031999,378.6 L849.031999,465 L812.743999,465 L812.743999,261.096 Z M878.695999,348.936 C883.880025,348.936 889.063973,348.552004 894.247999,347.784 C899.432025,347.015996 904.087978,345.576011 908.215999,343.464 C912.344019,341.351989 915.751985,338.32802 918.439999,334.392 C921.128012,330.45598 922.471999,325.416031 922.471999,319.272 C922.471999,313.703972 921.224011,309.144018 918.727999,305.592 C916.231986,302.039982 913.064018,299.208011 909.223999,297.096 C905.38398,294.983989 901.016023,293.544004 896.119999,292.776 C891.223974,292.007996 886.472022,291.624 881.863999,291.624 L849.031999,291.624 L849.031999,348.936 L878.695999,348.936 Z M1184.264,308.904 C1178.88797,301.607964 1171.88004,296.280017 1163.24,292.92 C1154.59996,289.559983 1146.15204,287.88 1137.896,287.88 C1127.33595,287.88 1117.73604,289.799981 1109.096,293.64 C1100.45596,297.480019 1093.01603,302.759966 1086.776,309.48 C1080.53597,316.200034 1075.73602,324.071955 1072.376,333.096 C1069.01598,342.120045 1067.336,351.911947 1067.336,362.472 C1067.336,373.608056 1068.96798,383.783954 1072.232,393 C1075.49602,402.216046 1080.15197,410.135967 1086.2,416.76 C1092.24803,423.384033 1099.49596,428.519982 1107.944,432.168 C1116.39204,435.816018 1125.89595,437.64 1136.456,437.64 C1147.40005,437.64 1157.09596,435.480022 1165.544,431.16 C1173.99204,426.839978 1180.80797,421.128036 1185.992,414.024 L1215.08,434.472 C1206.05595,445.800057 1195.01606,454.583969 1181.96,460.824 C1168.90393,467.064031 1153.64009,470.184 1136.168,470.184 C1120.23192,470.184 1105.59207,467.544026 1092.248,462.264 C1078.90393,456.983974 1067.43205,449.592048 1057.832,440.088 C1048.23195,430.583952 1040.74403,419.256066 1035.368,406.104 C1029.99197,392.951934 1027.304,378.40808 1027.304,362.472 C1027.304,346.151918 1030.13597,331.416066 1035.8,318.264 C1041.46403,305.111934 1049.23995,293.928046 1059.128,284.712 C1069.01605,275.495954 1080.67993,268.392025 1094.12,263.4 C1107.56007,258.407975 1122.15192,255.912 1137.896,255.912 C1144.42403,255.912 1151.23996,256.535994 1158.344,257.784 C1165.44804,259.032006 1172.26397,260.951987 1178.792,263.544 C1185.32003,266.136013 1191.46397,269.351981 1197.224,273.192 C1202.98403,277.032019 1207.87998,281.639973 1211.912,287.016 L1184.264,308.904 Z M1280.744,261.096 L1317.032,261.096 L1317.032,343.464 L1412.36,343.464 L1412.36,261.096 L1448.648,261.096 L1448.648,465 L1412.36,465 L1412.36,374.568 L1317.032,374.568 L1317.032,465 L1280.744,465 L1280.744,261.096 Z M1536.776,261.096 L1573.064,261.096 L1573.064,465 L1536.776,465 L1536.776,261.096 Z M1702.376,292.776 L1639.88,292.776 L1639.88,261.096 L1801.16,261.096 L1801.16,292.776 L1738.664,292.776 L1738.664,465 L1702.376,465 L1702.376,292.776 Z M1867.976,261.096 L2003.048,261.096 L2003.048,292.776 L1904.264,292.776 L1904.264,344.616 L1997.864,344.616 L1997.864,375.144 L1904.264,375.144 L1904.264,432.744 L2008.232,432.744 L2008.232,465 L1867.976,465 L1867.976,261.096 Z M2234.024,308.904 C2228.64798,301.607964 2221.64005,296.280017 2213,292.92 C2204.35996,289.559983 2195.91204,287.88 2187.656,287.88 C2177.09595,287.88 2167.49605,289.799981 2158.856,293.64 C2150.21596,297.480019 2142.77603,302.759966 2136.536,309.48 C2130.29597,316.200034 2125.49602,324.071955 2122.136,333.096 C2118.77599,342.120045 2117.096,351.911947 2117.096,362.472 C2117.096,373.608056 2118.72799,383.783954 2121.992,393 C2125.25602,402.216046 2129.91197,410.135967 2135.96,416.76 C2142.00803,423.384033 2149.25596,428.519982 2157.704,432.168 C2166.15205,435.816018 2175.65595,437.64 2186.216,437.64 C2197.16006,437.64 2206.85596,435.480022 2215.304,431.16 C2223.75205,426.839978 2230.56798,421.128036 2235.752,414.024 L2264.84,434.472 C2255.81596,445.800057 2244.77607,454.583969 2231.72,460.824 C2218.66394,467.064031 2203.40009,470.184 2185.928,470.184 C2169.99192,470.184 2155.35207,467.544026 2142.008,462.264 C2128.66394,456.983974 2117.19205,449.592048 2107.592,440.088 C2097.99196,430.583952 2090.50403,419.256066 2085.128,406.104 C2079.75198,392.951934 2077.064,378.40808 2077.064,362.472 C2077.064,346.151918 2079.89598,331.416066 2085.56,318.264 C2091.22403,305.111934 2098.99995,293.928046 2108.888,284.712 C2118.77605,275.495954 2130.43994,268.392025 2143.88,263.4 C2157.32007,258.407975 2171.91192,255.912 2187.656,255.912 C2194.18404,255.912 2200.99997,256.535994 2208.104,257.784 C2215.20804,259.032006 2222.02397,260.951987 2228.552,263.544 C2235.08004,266.136013 2241.22397,269.351981 2246.984,273.192 C2252.74403,277.032019 2257.63998,281.639973 2261.672,287.016 L2234.024,308.904 Z M2369.96,292.776 L2307.464,292.776 L2307.464,261.096 L2468.744,261.096 L2468.744,292.776 L2406.248,292.776 L2406.248,465 L2369.96,465 L2369.96,292.776 Z" id="ST-RCHITECT" fill="#C9C9D1"></path>
            <g id="Group" transform="translate(552.000000, 271.000000)">
                <path d="M189.703125,110.5 L190,110.5 L190,75.8798283 L95,0 L0,75.8798283 L0,110.5 L0.296875,110.5 L95,34.8572961 L189.703125,110.5 Z" id="Combined-Shape" fill="#222034"></path>
                <path d="M189.703125,165.75 L190,165.75 L190,131.129828 L95,55.25 L0,131.129828 L0,165.75 L0.296875,165.75 L95,90.1072961 L189.703125,165.75 Z" id="Combined-Shape" fill="#3F3F74"></path>
                <path d="M189.703125,221 L190,221 L190,186.379828 L95,110.5 L0,186.379828 L0,221 L0.296875,221 L95,145.357296 L189.703125,221 Z" id="Combined-Shape" fill="#76428A"></path>
            </g>
            <polygon id="Triangle-2" stroke="#C9C8D1" stroke-width="5" points="647 138 872 518 422 518"></polygon>
        </g>
    </g>
</svg>